<svg width="24" height="24" viewBox="0 0 24 24" fill="none" xmlns="http://www.w3.org/2000/svg">
<path fill-rule="evenodd" clip-rule="evenodd" d="M20.2322 3.93931C20.8179 4.52509 20.8179 5.47484 20.2322 6.06063L16.9999 9.29286L13.707 5.99989L16.9393 2.76769C17.525 2.18192 18.4748 2.18193 19.0606 2.76771L20.2322 3.93931ZM12.9998 6.70698L16.2928 9.99997L7.29281 19L3.99919 19.0001L3.99919 15.7073L12.9998 6.70698ZM20.9393 6.76773C21.9156 5.79142 21.9156 4.20851 20.9393 3.2322L19.7677 2.0606C18.7914 1.0843 17.2085 1.08429 16.2322 2.06057L2.99919 15.2931L2.99919 20.0001L7.70704 20L20.9393 6.76773ZM1 23H23V22H1V23Z" fill="#2F3744"/>
</svg>
