<svg width="24" height="24" viewBox="0 0 24 24" fill="none" xmlns="http://www.w3.org/2000/svg">
<path fill-rule="evenodd" clip-rule="evenodd" d="M2 12C2 6.47715 6.47715 2 12 2C17.5228 2 22 6.47715 22 12V13.5294C22 15.5073 20.5994 17 19 17C17.4006 17 16 15.5073 16 13.5294V6H15V7.20128C14.2562 6.45668 13.1708 6 12 6C9.85679 6 8 7.53026 8 9.55556V14.2857C8 16.3763 9.8318 18 12 18C13.5653 18 14.9553 17.1537 15.6072 15.8965C16.3045 17.1464 17.542 18 19 18C21.2665 18 23 15.9373 23 13.5294V12C23 5.92487 18.0751 1 12 1C5.92487 1 1 5.92487 1 12C1 15.6014 2.08268 18.3648 3.94645 20.2286C5.80871 22.0908 8.39606 23 11.3 23H16.2V22H11.3C8.60394 22 6.29129 21.1592 4.65355 19.5214C3.01732 17.8852 2 15.3986 2 12ZM15 9.55556C15 8.20577 13.7228 7 12 7C10.2772 7 9 8.20577 9 9.55556V14.2857C9 15.7455 10.3022 17 12 17C13.6978 17 15 15.7455 15 14.2857V9.55556Z" fill="#2F3744"/>
</svg>
