<svg width="24" height="24" viewBox="0 0 24 24" fill="none" xmlns="http://www.w3.org/2000/svg">
<path d="M13 21H11V20H13V21Z" fill="#2F3744"/>
<path fill-rule="evenodd" clip-rule="evenodd" d="M5 3.5C5 2.11929 6.11929 1 7.5 1H16.5C17.8807 1 19 2.11929 19 3.5V20.5C19 21.8807 17.8807 23 16.5 23H7.5C6.11929 23 5 21.8807 5 20.5V3.5ZM6 5V20.5C6 21.3284 6.67157 22 7.5 22H16.5C17.3284 22 18 21.3284 18 20.5V5H6ZM18 4V3.5C18 2.67157 17.3284 2 16.5 2H7.5C6.67157 2 6 2.67157 6 3.5V4H18Z" fill="#2F3744"/>
</svg>
