<svg width="18" height="18" viewBox="0 0 18 18" fill="none" xmlns="http://www.w3.org/2000/svg">
<path fill-rule="evenodd" clip-rule="evenodd" d="M9 2C7.34315 2 6 3.34315 6 5V8H12V5C12 3.34315 10.6569 2 9 2ZM13 8V5C13 2.79086 11.2091 1 9 1C6.79086 1 5 2.79086 5 5V8H4.5C3.67157 8 3 8.67157 3 9.5V15.5C3 16.3284 3.67157 17 4.5 17H13.5C14.3284 17 15 16.3284 15 15.5V9.5C15 8.67157 14.3284 8 13.5 8H13ZM4.5 9C4.22386 9 4 9.22386 4 9.5V15.5C4 15.7761 4.22386 16 4.5 16H13.5C13.7761 16 14 15.7761 14 15.5V9.5C14 9.22386 13.7761 9 13.5 9H4.5Z" fill="#2F3744"/>
</svg>
