<svg width="24" height="24" viewBox="0 0 24 24" fill="none" xmlns="http://www.w3.org/2000/svg">
<path fill-rule="evenodd" clip-rule="evenodd" d="M7 7C7 4.23858 9.23858 2 12 2C14.7614 2 17 4.23858 17 7C17 9.76142 14.7614 12 12 12C9.23858 12 7 9.76142 7 7ZM12 3C9.79086 3 8 4.79086 8 7C8 9.20914 9.79086 11 12 11C14.2091 11 16 9.20914 16 7C16 4.79086 14.2091 3 12 3Z" fill="#2F3744"/>
<path d="M14 18H16V19H14V18Z" fill="#2F3744"/>
<path d="M10.5 14C7.46243 14 5 16.4624 5 19.5V23H6V19.5C6 17.0147 8.01472 15 10.5 15H13.5C15.9853 15 18 17.0147 18 19.5V23H19V19.5C19 16.4624 16.5376 14 13.5 14H10.5Z" fill="#2F3744"/>
</svg>
